<?xml version="1.0" standalone="no"?><!DOCTYPE svg PUBLIC "-//W3C//DTD SVG 1.1//EN" "http://www.w3.org/Graphics/SVG/1.1/DTD/svg11.dtd"><svg t="1652265926300" class="icon" viewBox="0 0 1024 1024" version="1.1" xmlns="http://www.w3.org/2000/svg" p-id="3661" xmlns:xlink="http://www.w3.org/1999/xlink" width="200" height="200"><defs><style type="text/css"></style></defs><path d="M791.273 0H232.727C104.394 0 0 104.394 0 232.727v558.545C0 919.606 104.394 1024 232.727 1024h558.545C919.606 1024 1024 919.606 1024 791.273V232.727C1024 104.394 919.606 0 791.273 0z" fill="#33A7FF" p-id="3662"></path><path d="M816.424 376.833L480.258 712.985c-9.091 9.091-21 13.636-32.909 13.636s-23.818-4.545-32.909-13.636L207.576 506.121c-18.182-18.167-18.182-47.652 0-65.818 18.182-18.182 47.636-18.182 65.818 0l173.955 173.955 303.258-303.242c18.182-18.182 47.636-18.182 65.818 0 18.181 18.181 18.181 47.651-0.001 65.817z" fill="#FFFFFF" p-id="3663"></path></svg>